#!OML:ASF E:\Style4\Style4.ASF
:FULLY-SPECIFIED
:DEGREES
2068
root 0.0783137 17.6643 -1.00207 1.33289 0.201907 2.5899
lowerback 6.25843 2.27566 -0.0662809
upperback 2.04248 3.02518 0.142411
thorax -1.41226 1.5093 -0.039093
lowerneck -0.920266 -5.02877 -5.24847
upperneck 0.470332 -6.66394 2.87054
head 0.586498 -3.33016 1.70981
rclavicle -1.02374e-014 1.39149e-014
rhumerus -43.3787 22.2918 -96.0958
rradius 90.869
rwrist -37.2465
rhand -30.922 18.7694
rfingers 7.12502
rthumb -4.20786 -11.1688
lclavicle -1.02374e-014 1.39149e-014
lhumerus -45.0122 -32.9936 102.301
lradius 91.7248
lwrist 36.5332
lhand -17.7578 30.1079
lfingers 7.12502
lthumb 8.50403 59.9167
rfemur -14.7325 2.65627 15.5149
rtibia 35.7018
rfoot -20.8004 -12.9134
rtoes -12.2805
lfemur -13.3488 -2.93655 -21.7317
ltibia 33.0901
lfoot -20.8742 8.3269
ltoes -15.0333
2069
root 0.0740281 17.6652 -1.00567 1.51909 0.064087 2.58992
lowerback 5.97237 2.30587 -0.11661
upperback 1.94527 3.06251 0.112196
thorax -1.35425 1.52816 -0.0346662
lowerneck -1.00794 -5.03352 -5.14014
upperneck 0.634875 -6.6681 2.81382
head 0.646708 -3.33288 1.6682
rclavicle 3.67752e-015 -7.95139e-016
rhumerus -42.6136 23.0352 -96.3451
rradius 91.1808
rwrist -37.4787
rhand -31.015 18.8153
rfingers 7.12502
rthumb -4.29764 -11.121
lclavicle 3.67752e-015 -7.95139e-016
lhumerus -44.1386 -33.6716 102.091
lradius 92.0696
lwrist 36.8548
lhand -18.3748 29.5542
lfingers 7.12502
lthumb 7.90863 59.3862
rfemur -14.9435 2.79108 15.5001
rtibia 35.626
rfoot -20.7237 -12.9153
rtoes -12.3181
lfemur -13.5002 -2.87136 -21.7301
ltibia 32.9855
lfoot -20.8867 8.43924
ltoes -15.108
2070
root 0.06513 17.6693 -1.00739 1.61941 -0.277054 2.59085
lowerback 5.71393 2.40026 -0.280719
upperback 1.90389 3.17976 0.124901
thorax -1.26284 1.58671 0.0722543
lowerneck -1.16156 -5.02239 -5.1543
upperneck 0.835535 -6.64703 2.81117
head 0.735312 -3.32287 1.66343
rclavicle 9.49197e-015 1.47101e-014
rhumerus -41.7271 23.8065 -96.4432
rradius 91.5758
rwrist -37.5906
rhand -31.1608 18.5412
rfingers 7.12502
rthumb -4.43837 -11.3923
lclavicle 9.49197e-015 1.47101e-014
lhumerus -43.1025 -34.3596 101.813
lradius 92.5819
lwrist 37.365
lhand -19.0525 29.5395
lfingers 7.12502
lthumb 7.25448 59.3951
rfemur -15.0953 3.09196 15.5045
rtibia 35.5506
rfoot -20.61 -12.8934
rtoes -12.3078
lfemur -13.5217 -2.59284 -21.7113
ltibia 32.8798
lfoot -20.8857 8.47794
ltoes -15.0341
2071
root 0.0647365 17.6733 -1.00828 1.50823 -0.22789 2.5966
lowerback 5.66155 2.37046 -0.269491
upperback 1.91914 3.14099 0.124249
thorax -1.21724 1.56743 0.0707638
lowerneck -1.25486 -5.00129 -5.19867
upperneck 1.00164 -6.61502 2.82192
head 0.804218 -3.30757 1.67061
rclavicle -1.63997e-014 -3.97569e-016
rhumerus -40.7099 24.5203 -96.3855
rradius 91.991
rwrist -37.6367
rhand -31.1933 18.1997
rfingers 7.12502
rthumb -4.4698 -11.7331
lclavicle -1.63997e-014 -3.97569e-016
lhumerus -41.9064 -35.1266 101.464
lradius 92.9756
lwrist 37.7416
lhand -19.6112 29.5615
lfingers 7.12502
lthumb 6.71512 59.435
rfemur -14.9192 3.0765 15.5087
rtibia 35.4791
rfoot -20.6156 -12.9473
rtoes -12.6666
lfemur -13.36 -2.63736 -21.7146
ltibia 32.7963
lfoot -20.8535 8.45919
ltoes -15.143
2072
root 0.0732633 17.6752 -1.01243 1.41411 0.126259 2.6169
lowerback 5.65672 2.24464 -0.134671
upperback 1.88715 2.98088 0.104565
thorax -1.23886 1.48776 -0.0145303
lowerneck -1.28107 -5.00357 -5.25669
upperneck 1.14789 -6.6174 2.84639
head 0.858086 -3.30974 1.68597
rclavicle -1.44119e-014 1.86858e-014
rhumerus -39.6703 25.1387 -96.2163
rradius 92.4664
rwrist -37.7215
rhand -31.1106 17.9624
rfingers 7.12502
rthumb -4.38993 -11.9721
lclavicle -1.44119e-014 1.86858e-014
lhumerus -40.706 -35.8594 101.064
lradius 93.3888
lwrist 37.9841
lhand -20.0072 29.83
lfingers 7.12502
lthumb 6.33286 59.7153
rfemur -14.7068 2.76372 15.473
rtibia 35.3839
rfoot -20.6106 -12.9802
rtoes -12.8192
lfemur -13.2463 -2.98047 -21.7634
ltibia 32.692
lfoot -20.7572 8.49491
ltoes -15.2682
2073
root 0.0764408 17.6781 -1.01856 1.37554 0.16672 2.62148
lowerback 5.62788 2.2215 -0.0948736
upperback 1.81855 2.95212 0.0824573
thorax -1.29007 1.47346 -0.0580103
lowerneck -1.29021 -5.01657 -5.24523
upperneck 1.28478 -6.63566 2.83856
head 0.902811 -3.31982 1.67919
rclavicle 9.0944e-015 -1.19271e-014
rhumerus -38.5992 25.7416 -96.004
rradius 93.024
rwrist -37.8183
rhand -31.1587 17.6668
rfingers 7.12502
rthumb -4.43639 -12.2667
lclavicle 9.0944e-015 -1.19271e-014
lhumerus -39.4348 -36.5199 100.524
lradius 93.9479
lwrist 38.4162
lhand -20.2672 30.8248
lfingers 7.12502
lthumb 6.08189 60.7175
rfemur -14.6281 2.71405 15.457
rtibia 35.2805
rfoot -20.5365 -12.952
rtoes -12.6635
lfemur -13.1688 -3.091 -21.787
ltibia 32.5958
lfoot -20.7425 8.57168
ltoes -15.1895
2074
root 0.0711397 17.681 -1.02582 1.22743 -0.141691 2.57976
lowerback 5.71897 2.30968 -0.150459
upperback 1.79096 3.06635 0.0963495
thorax -1.37282 1.53029 -0.0252241
lowerneck -1.40604 -5.00421 -5.26736
upperneck 1.50543 -6.6154 2.86422
head 0.993449 -3.31042 1.6861
rclavicle 3.32964e-014 -1.51076e-014
rhumerus -37.3005 26.3939 -95.6372
rradius 93.4199
rwrist -37.9482
rhand -31.3018 17.8632
rfingers 7.12502
rthumb -4.57456 -12.0674
lclavicle 3.32964e-014 -1.51076e-014
lhumerus -38.0349 -37.154 99.8675
lradius 94.4726
lwrist 38.7681
lhand -20.466 31.7134
lfingers 7.12502
lthumb 5.88995 61.6115
rfemur -14.4917 3.00535 15.5139
rtibia 35.1807
rfoot -20.5199 -12.8652
rtoes -12.2837
lfemur -12.9481 -2.83829 -21.7432
ltibia 32.4993
lfoot -20.6949 8.68204
ltoes -15.5215
2075
root 0.0702182 17.6839 -1.0313 1.23051 -0.284093 2.51826
lowerback 5.62127 2.33918 -0.149649
upperback 1.73388 3.10659 0.133558
thorax -1.3792 1.55038 0.0124951
lowerneck -1.55707 -4.98658 -5.3455
upperneck 1.79069 -6.586 2.90341
head 1.11334 -3.29688 1.7059
rclavicle -4.70126e-014 -1.19271e-014
rhumerus -35.816 26.9838 -95.095
rradius 93.7393
rwrist -38.1232
rhand -31.4222 17.944
rfingers 7.12502
rthumb -4.69081 -11.9841
lclavicle -4.70126e-014 -1.19271e-014
lhumerus -36.5036 -37.6608 99.1505
lradius 94.9406
lwrist 39.1723
lhand -21.0905 31.5132
lfingers 7.12502
lthumb 5.28696 61.4272
rfemur -14.4941 3.09151 15.5778
rtibia 35.0772
rfoot -20.434 -12.8208
rtoes -12.387
lfemur -12.9037 -2.7556 -21.6737
ltibia 32.3811
lfoot -20.6562 8.68776
ltoes -15.2269
2076
root 0.0711209 17.6883 -1.03487 1.22935 -0.307637 2.57548
lowerback 5.48725 2.3395 -0.227596
upperback 1.68227 3.10299 0.118196
thorax -1.36089 1.54876 0.0450588
lowerneck -1.69677 -4.99033 -5.30041
upperneck 2.11579 -6.58633 2.83005
head 1.23601 -3.29889 1.66749
rclavicle -1.08338e-014 5.96354e-015
rhumerus -34.2647 27.414 -94.49
rradius 94.1594
rwrist -38.352
rhand -31.5332 17.6089
rfingers 7.12502
rthumb -4.79796 -12.3168
lclavicle -1.08338e-014 5.96354e-015
lhumerus -34.953 -38.1778 98.3598
lradius 95.5091
lwrist 39.9039
lhand -21.9905 30.4896
lfingers 7.12502
lthumb 4.41792 60.4235
rfemur -14.46 3.03743 15.5024
rtibia 34.9701
rfoot -20.3241 -12.7711
rtoes -12.6996
lfemur -12.8354 -2.78289 -21.7421
ltibia 32.2339
lfoot -20.6281 8.69346
ltoes -14.9711
2077
root 0.0679893 17.6924 -1.03862 1.0336 -0.38088 2.63022
lowerback 5.54541 2.35644 -0.304842
upperback 1.67779 3.12051 0.0808098
thorax -1.39994 1.55755 0.0459147
lowerneck -1.83337 -4.98939 -5.25706
upperneck 2.4392 -6.58273 2.83277
head 1.36123 -3.298 1.65422
rclavicle 2.03257e-014 -9.54166e-015
rhumerus -32.6969 27.9133 -93.9177
rradius 94.6053
rwrist -38.9204
rhand -31.7156 17.4559
rfingers 7.12502
rthumb -4.97417 -12.4657
lclavicle 2.03257e-014 -9.54166e-015
lhumerus -33.3007 -38.7221 97.4414
lradius 96.0979
lwrist 40.4899
lhand -22.039 30.3415
lfingers 7.12502
lthumb 4.37112 60.2764
rfemur -14.2072 3.06008 15.4558
rtibia 34.8613
rfoot -20.2778 -12.7262
rtoes -12.8687
lfemur -12.5273 -2.71304 -21.8059
ltibia 32.064
lfoot -20.5386 8.70562
ltoes -14.8642
2078
root 0.0660903 17.6955 -1.04458 0.915063 -0.360831 2.68455
lowerback 5.57564 2.34095 -0.358938
upperback 1.64111 3.09635 0.0535622
thorax -1.4557 1.54558 0.0474102
lowerneck -1.96632 -5.01152 -5.3372
upperneck 2.74502 -6.60892 2.91273
head 1.4905 -3.31189 1.68694
rclavicle 3.27001e-014 5.56597e-015
rhumerus -31.1072 28.4469 -93.2116
rradius 95.1129
rwrist -39.613
rhand -31.8384 17.2836
rfingers 7.12502
rthumb -5.09265 -12.6352
lclavicle 3.27001e-014 5.56597e-015
lhumerus -31.4723 -39.0759 96.3695
lradius 96.6606
lwrist 40.8021
lhand -21.3518 30.9044
lfingers 7.12502
lthumb 5.0347 60.8246
rfemur -14.0389 3.0452 15.4039
rtibia 34.7636
rfoot -20.2499 -12.6985
rtoes -12.7834
lfemur -12.3116 -2.7838 -21.8739
ltibia 31.8739
lfoot -20.4489 8.75936
ltoes -14.662
2079
root 0.0654403 17.7005 -1.05352 0.915197 -0.369832 2.68341
lowerback 5.51811 2.33464 -0.368874
upperback 1.56455 3.08771 0.0533212
thorax -1.50281 1.5414 0.0537599
lowerneck -2.06226 -5.03525 -5.40066
upperneck 3.01985 -6.63725 2.92876
head 1.60053 -3.32766 1.69741
rclavicle -4.91992e-015 4.77083e-015
rhumerus -29.4672 28.8852 -92.3933
rradius 95.6319
rwrist -40.106
rhand -31.9245 16.9341
rfingers 7.12502
rthumb -5.17583 -12.9827
lclavicle -4.91992e-015 4.77083e-015
lhumerus -29.6222 -39.3273 95.3
lradius 97.2907
lwrist 41.3559
lhand -21.071 31.4949
lfingers 7.12502
lthumb 5.30575 61.4085
rfemur -14.0274 3.07847 15.4046
rtibia 34.6687
rfoot -20.2032 -12.6775
rtoes -12.6601
lfemur -12.2477 -2.86109 -21.8644
ltibia 31.6936
lfoot -20.4389 8.75913
ltoes -14.3497
2080
root 0.0643275 17.7037 -1.06443 0.878305 -0.40866 2.68575
lowerback 5.51088 2.33261 -0.396544
upperback 1.5062 3.08341 0.0481117
thorax -1.55988 1.53937 0.0628534
lowerneck -2.18747 -5.03093 -5.41774
upperneck 3.31472 -6.62738 2.91803
head 1.71786 -3.32421 1.69147
rclavicle 1.89839e-014 -3.18055e-015
rhumerus -27.7754 29.2649 -91.5575
rradius 96.1542
rwrist -40.4689
rhand -32.0291 16.7072
rfingers 7.12502
rthumb -5.27684 -13.2071
lclavicle 1.89839e-014 -3.18055e-015
lhumerus -27.7856 -39.5903 94.2081
lradius 97.9702
lwrist 41.958
lhand -21.326 31.8931
lfingers 7.12502
lthumb 5.05954 61.8127
rfemur -13.9948 3.13864 15.407
rtibia 34.5761
rfoot -20.1343 -12.6781
rtoes -12.541
lfemur -12.1633 -2.88237 -21.8501
ltibia 31.5557
lfoot -20.3859 8.59493
ltoes -13.4806
2081
root 0.0646505 17.7053 -1.07332 0.787005 -0.436842 2.65986
lowerback 5.53828 2.34178 -0.372436
upperback 1.46424 3.09663 0.0380734
thorax -1.61649 1.54595 0.0358468
lowerneck -2.38815 -5.04031 -5.44488
upperneck 3.69916 -6.63516 2.96895
head 1.8824 -3.32858 1.70426
rclavicle 3.43897e-014 -1.66979e-014
rhumerus -26.0913 29.5223 -90.6937
rradius 96.6391
rwrist -40.7448
rhand -32.086 16.6289
rfingers 7.12502
rthumb -5.33178 -13.284
lclavicle 3.43897e-014 -1.66979e-014
lhumerus -25.8051 -39.7788 93.064
lradius 98.5301
lwrist 42.5324
lhand -21.6676 32.2034
lfingers 7.12502
lthumb 4.7297 62.1306
rfemur -13.8789 3.17172 15.4363
rtibia 34.4742
rfoot -20.0289 -12.6863
rtoes -12.5274
lfemur -12.038 -2.8896 -21.8163
ltibia 31.4517
lfoot -20.2632 8.46704
ltoes -12.5826
